<svg width="20" height="21" viewBox="0 0 20 21" fill="none" xmlns="http://www.w3.org/2000/svg">
<path d="M15.5058 9.69585V16.3034C15.5074 16.5549 15.4588 16.8043 15.3629 17.0369C15.267 17.2695 15.1257 17.4807 14.9472 17.658C14.7688 17.8354 14.5568 17.9754 14.3236 18.0699C14.0904 18.1644 13.8407 18.2115 13.5892 18.2084H4.20834C3.95584 18.2114 3.70529 18.1639 3.47143 18.0686C3.23757 17.9733 3.02513 17.8322 2.84661 17.6537C2.66809 17.4751 2.52711 17.2626 2.43195 17.0287C2.33678 16.7948 2.28937 16.5442 2.2925 16.2917V6.91085C2.28949 6.65832 2.337 6.40773 2.43225 6.17382C2.52751 5.93992 2.66857 5.72742 2.84716 5.54884C3.02574 5.37026 3.23823 5.22919 3.47214 5.13394C3.70604 5.03868 3.95663 4.99117 4.20917 4.99419H10.8158M17.7083 2.79169L8.89917 11.6009M17.7083 2.79169H13.3033M17.7083 2.79169V7.19669" stroke="#CDB7BB" stroke-width="1.5" stroke-linecap="round" stroke-linejoin="round"/>
</svg>
