<svg width="14" height="14" viewBox="0 0 14 14" fill="none" xmlns="http://www.w3.org/2000/svg">
<path d="M13.6333 6.07002C13.58 6.28935 13.4642 6.48851 13.3 6.64335L11.1 8.79002C11.0777 8.81341 11.0597 8.84048 11.0467 8.87002C11.0402 8.90079 11.0402 8.93258 11.0467 8.96335L11.5667 12.0034C11.61 12.2274 11.5867 12.4594 11.5 12.67C11.4197 12.8784 11.2779 13.0575 11.0933 13.1834C10.914 13.3157 10.7019 13.3964 10.48 13.4167H10.3933C10.1979 13.4171 10.0055 13.369 9.83332 13.2767L7.09999 11.85C7.07161 11.8336 7.03942 11.825 7.00666 11.825C6.97389 11.825 6.9417 11.8336 6.91332 11.85L4.17999 13.2834C3.97495 13.3907 3.74421 13.4391 3.51332 13.4234C3.28909 13.4042 3.07451 13.3235 2.89332 13.19C2.71053 13.0595 2.56932 12.8789 2.48666 12.67C2.4023 12.4585 2.3792 12.2274 2.41999 12.0034L2.93999 8.97002C2.94969 8.93966 2.94969 8.90704 2.93999 8.87669C2.92962 8.84731 2.91379 8.82017 2.89332 8.79669L0.693323 6.63669C0.533499 6.48213 0.42031 6.28578 0.366656 6.07002C0.301813 5.85253 0.301813 5.62084 0.366656 5.40335C0.439946 5.18929 0.571947 5.00014 0.747589 4.8575C0.923232 4.71487 1.13544 4.62449 1.35999 4.59669L4.35999 4.15669C4.38988 4.15593 4.41841 4.14404 4.43999 4.12335C4.4654 4.10389 4.48594 4.07878 4.49999 4.05002L5.89999 1.26335C5.99532 1.06335 6.14599 0.894687 6.33332 0.776687C6.47572 0.686768 6.63553 0.628006 6.80226 0.604264C6.96898 0.580523 7.13884 0.592339 7.30068 0.638937C7.46251 0.685535 7.61265 0.765858 7.74122 0.874627C7.86979 0.983396 7.97388 1.11815 8.04666 1.27002L9.43332 4.04335C9.45007 4.07414 9.47273 4.10133 9.49999 4.12335C9.52425 4.144 9.55482 4.15576 9.58666 4.15669L12.6333 4.59669C12.8547 4.63002 13.0627 4.72469 13.2333 4.87002C13.4007 5.01469 13.5273 5.20069 13.6 5.41002C13.6707 5.62335 13.6827 5.85135 13.6333 6.07002Z" fill="white"/>
</svg>
